# xmcd
#
# Track frame offsets:
#	150
#	17378
#	41814
#	64942
#	71864
#	84824
#	99221
#	113406
#	133255
#	151766
#	166920
#	187849
#	209232
#
# Disc length: 3019 seconds
# Revision: 0
# Processed by: cddbd v1.5.2PL0 Copyright (c) Steve Scherf et al.
# Submitted via: dBpowerAMP V12.0
#
DISCID=a40bc90d
DTITLE=Universum - Leto Destinatus
DYEAR=2008
DGENRE=Metal
TTITLE0=Leto Destinatus
TTITLE1=Day of Redemption
TTITLE2=Disconnected
TTITLE3=Solitude
TTITLE4=Damage
TTITLE5=Invisible Scars
TTITLE6=War of Ages
TTITLE7=False Paradigm
TTITLE8=Zero
TTITLE9=Faded
TTITLE10=Black Logic
TTITLE11=Misery Cell
TTITLE12=Ignite the Subconscious
EXTD=
EXTT0=
EXTT1=
EXTT2=
EXTT3=
EXTT4=
EXTT5=
EXTT6=
EXTT7=
EXTT8=
EXTT9=
EXTT10=
EXTT11=
EXTT12=
PLAYORDER=
